<?xml version="1.0" encoding="utf-8"?>
<!-- Uploaded to: SVG Repo, www.svgrepo.com, Generator: SVG Repo Mixer Tools -->
<svg width="55" height="60" viewBox="0 0 30 30" fill="black"  version="1.1" xmlns="http://www.w3.org/2000/svg">
<title>thorny-vine</title>
<path d="M27.071 25.176c0.689-2.236 0.833-4.7 0.657-7.148 2.613-1.275 3.742-4.818 2.053-8.418-0.293 2.188-1.752 3.347-2.96 3.030-0.547-1.686-1.446-3.198-2.596-4.474 0.592-2.413-0.978-5.267-4.251-6.607 1.134 1.552 1.123 3.038 0.357 3.643-1.61-0.809-3.387-1.295-5.213-1.388-1.051-2.011-3.668-3.143-6.41-2.274 1.683 0.481 2.553 1.621 2.315 2.482-1.648 0.265-3.193 0.765-4.538 1.542-1.823-1.034-4.393-0.395-5.607 2.059 1.212-0.737 2.529-0.543 3.008 0.118-0.425 0.514-0.801 1.083-1.12 1.712l0 0c-3.013 5.937-1.824 11.702 3.839 13.959 4.269 1.701 9.882-1.463 8.090-6.45-0.806 5.351-8.564 3.186-7.699-1.678 0.895-5.032 8.043-6.561 10.937-1.548 2.199 3.809 0.168 7.625-3.348 10.332-2.961 2.28-7.812 2.805-13.738 0.911v6.45h21.61c0.7-0.458 1.317-0.968 1.86-1.522 2.977 0.316 5.976-2.014 6.668-5.966-1.405 1.5-3.015 1.838-3.915 1.233z"></path>
</svg>