<svg viewBox="0 0 64 64" xmlns="http://www.w3.org/2000/svg">
<path d="M53.6554 18.5C55.7826 22.1772 57 26.4464 57 31C57 44.8071 45.8071 56 32 56C18.1929 56 7 44.8071 7 31C7 17.1929 18.1929 6 32 6C38.475 6 44.3751 8.46159 48.8154 12.5" stroke="white" stroke-width="2" stroke-linecap="round"/>
<path d="M19.4821 30.4571L23.5 26.4392L27.5179 30.4571C28.0534 30.9926 28.9216 30.9926 29.4571 30.4571C29.9926 29.9216 29.9926 29.0534 29.4571 28.5179L25.4392 24.5L29.4571 20.4821C29.9926 19.9466 29.9926 19.0784 29.4571 18.5429C28.9216 18.0074 28.0534 18.0074 27.5179 18.5429L23.5 22.5608L19.4821 18.5429C18.9466 18.0074 18.0784 18.0074 17.5429 18.5429C17.0074 19.0784 17.0074 19.9466 17.5429 20.4821L21.5608 24.5L17.5429 28.5179C17.0074 29.0534 17.0074 29.9216 17.5429 30.4571C18.0784 30.9926 18.9466 30.9926 19.4821 30.4571ZM18.0679 19.9571L18.25 19.775L18.0679 19.9571Z" stroke="white" stroke-width="2"/>
<path d="M36.4821 30.4571L40.5 26.4392L44.5179 30.4571C45.0534 30.9926 45.9216 30.9926 46.4571 30.4571C46.9926 29.9216 46.9926 29.0534 46.4571 28.5179L42.4392 24.5L46.4571 20.4821C46.9926 19.9466 46.9926 19.0784 46.4571 18.5429C45.9216 18.0074 45.0534 18.0074 44.5179 18.5429L40.5 22.5608L36.4821 18.5429C35.9466 18.0074 35.0784 18.0074 34.5429 18.5429C34.0074 19.0784 34.0074 19.9466 34.5429 20.4821L38.5608 24.5L34.5429 28.5179C34.0074 29.0534 34.0074 29.9216 34.5429 30.4571C35.0784 30.9926 35.9466 30.9926 36.4821 30.4571ZM35.0679 19.9571L35.25 19.775L35.0679 19.9571Z" stroke="white" stroke-width="2"/>
<path d="M25 44.5V44.5C25 40.9101 27.9101 38 31.5 38H32.5C36.0899 38 39 40.9101 39 44.5V44.5" stroke="white" stroke-width="2"/>
</svg>
